<svg width="180" height="63" viewBox="0 0 180 63" fill="none" xmlns="http://www.w3.org/2000/svg">
<ellipse cx="19.5" cy="25" rx="19.5" ry="17" fill="white"/>
<path d="M36.644 33L37.9791 30.6246L38.7644 27.7742L39 24.5279L38.7644 22.0733L37.2723 17.6393L35.466 14.3138L33.4241 12.3343L30.911 10.2757L28.712 8.69208L25.8063 6.79179L24 6" stroke="white"/>
<g filter="url(#filter0_f_261_247)">
<path d="M36.644 33L37.9791 30.7126L38.7644 27.9677L39 24.8416L38.7644 22.478L37.2723 18.2082L35.466 15.0059L33.4241 13.0997L30.911 11.1173L28.712 9.59238L25.8063 7.76246L24 7" stroke="white" stroke-width="0.6"/>
</g>
<g clip-path="url(#clip0_261_247)">
<path d="M21.3462 7L2 12.4259V41.5741L21.3462 47V7Z" fill="#242424"/>
<path d="M21.3462 47L2 41.5741V39.098L21.3462 43.6715V47Z" fill="#F3ECE6"/>
<path d="M21.3462 11.7755L2 15.7893V15.4943L21.3462 11.3551V11.7755Z" fill="#F8A543"/>
<path d="M21.3462 16.6115L2 19.1991V18.9017L21.3462 16.1911V16.6115Z" fill="#F8A543"/>
<path d="M21.3462 12.1867L2 16.0796V18.6532L21.3462 15.8357V12.1867Z" fill="#F8A543"/>
<path d="M2 20.386L3.0601 20.2722V21.9863L2 22.063V20.386Z" fill="#F8A543"/>
<path d="M4.92062 20.0724L8.84419 19.6473V21.5729L4.92062 21.8539V20.0724Z" fill="#F8A543"/>
<path d="M11.2003 19.3942L16.2435 18.8483V21.0433L11.2003 21.4033V19.3942Z" fill="#F8A543"/>
<path d="M21.3438 18.2978V20.6763L19.3237 20.8226V18.5162L21.3438 18.2978Z" fill="#F8A543"/>
<path d="M4.72529 20.9806L3.9725 22.293L3.24353 21.113L3.9725 19.803L4.72529 20.9806Z" fill="#F8A543"/>
<path d="M10.9501 20.4208L9.99722 21.9074L9.07529 20.5904L9.99722 19.1061L10.9501 20.4208Z" fill="#F8A543"/>
<path d="M18.995 19.6984L17.7443 21.4126L16.5436 19.9191L17.7443 18.2096L18.995 19.6984Z" fill="#F8A543"/>
<path d="M21.3463 7L37 12.4259V41.5741L21.3463 47V7Z" fill="#242424"/>
<path d="M21.3463 11.7755L37 15.7893V15.4943L21.3463 11.3551V11.7755Z" fill="#F8A543"/>
<path d="M21.3463 16.6115L37 19.1991V18.9017L21.3463 16.1911V16.6115Z" fill="#F8A543"/>
<path d="M21.3463 12.1867L37 16.0796V18.6532L21.3463 15.8357V12.1867Z" fill="#F8A543"/>
<path d="M37 20.386L36.1424 20.2722V21.9863L37 22.063V20.386Z" fill="#F8A543"/>
<path d="M34.6344 20.0724L31.4613 19.6473V21.5729L34.6344 21.8539V20.0724Z" fill="#F8A543"/>
<path d="M29.5531 19.3942L25.4747 18.8483V21.0433L29.5531 21.4033V19.3942Z" fill="#F8A543"/>
<path d="M21.3463 18.2978V20.6763L22.9805 20.8226V18.5162L21.3463 18.2978Z" fill="#F8A543"/>
<path d="M34.794 20.9806L35.4039 22.293L35.9923 21.113L35.4039 19.803L34.794 20.9806Z" fill="#F8A543"/>
<path d="M29.7556 20.4208L30.5274 21.9074L31.2731 20.5904L30.5274 19.1061L29.7556 20.4208Z" fill="#F8A543"/>
<path d="M23.2473 19.6984L24.2574 21.4126L25.2293 19.9191L24.2574 18.2096L23.2473 19.6984Z" fill="#F8A543"/>
<path d="M21.3463 47L37 41.5741V39.098L21.3463 43.6715V47Z" fill="#F3ECE6"/>
<g style="mix-blend-mode:screen" opacity="0.36">
<path d="M21.3463 7L37 12.4259V41.5741L21.3463 47V7Z" fill="#242424"/>
</g>
</g>
<path d="M21.7752 4.15431L22.1208 2.956L23.2685 1.36323L24.3266 0.277574L23.4574 0.172639L19.7154 3.02841C19.0812 2.681 18.5246 2.37776 18.1877 2.19417C16.91 1.49599 16.4229 1.87815 16.4229 1.87815C16.4229 1.87815 16.3643 2.49311 17.6465 3.19297C17.9835 3.37655 18.5369 3.68126 19.1743 4.0272L18.7865 8.7184L19.3429 9.39197L19.6891 7.91476L20.4082 6.08919L21.2295 5.15143C22.4157 5.80039 23.4128 6.34609 23.4128 6.34609C23.4128 6.34609 23.5488 6.40903 23.7436 6.47527L24.0397 8.13587L24.6809 8.61363L24.8526 6.5951C24.8932 6.58391 24.9309 6.56644 24.9655 6.55043C24.9621 6.51004 24.9555 6.4711 24.9443 6.43048L26.5523 5.19697L25.803 4.91432L24.2435 5.56046C24.08 5.43008 23.9554 5.35044 23.9554 5.35044C23.9554 5.35044 22.9582 4.80473 21.7721 4.15577L21.7752 4.15431Z" fill="white"/>
<path d="M24.3947 6.42164L25.1746 6.77028L25.2597 6.61632L24.5585 6.12437L24.4275 6.36064L24.3947 6.42164Z" fill="white"/>
<path d="M60.525 9.15L65.875 24.25L69.65 11.325C69.825 10.775 69.9 10.3 69.9 9.875C69.9 9.25 69.725 8.725 69.45 8.275H71.4L66.35 26H65.025C64.525 26 64.1 25.675 63.925 25.225L59.4 12.45L54.675 26H53.25C52.75 26 52.325 25.7 52.2 25.225L47.325 8.275H50.825C50.575 8.675 50.45 9.125 50.45 9.675C50.45 10.225 50.575 10.9 50.8 11.7L54.3 24.25L58.875 11.275L57.775 8.275H59.3C59.85 8.275 60.35 8.625 60.525 9.15ZM84.3807 25.725L81.5557 19.775H74.2057L71.3307 26H69.7307L70.2057 25.65C70.3557 25.55 70.4807 25.35 70.5557 25.2L77.3307 10.475L76.4557 8.975C76.3307 8.75 76.1307 8.475 75.9307 8.3L75.9057 8.275H77.9557C78.3057 8.275 78.6807 8.5 78.8307 8.825L86.9057 25.2C86.9807 25.35 87.1307 25.55 87.2557 25.65L87.6807 26H84.8057C84.6307 26 84.4557 25.875 84.3807 25.725ZM74.6307 18.875H81.1307L77.8307 11.925L74.6307 18.875ZM96.4227 26H89.5977C89.8227 25.675 89.9727 25.25 89.9727 24.8V9.475C89.9727 9 89.8227 8.625 89.5977 8.275H94.5977C97.9477 8.275 100.348 10.025 100.348 12.825C100.348 14.6 98.6477 16.55 97.0977 16.825C100.198 17.1 101.898 19.05 101.898 21.225C101.898 23.725 99.6727 26 96.4227 26ZM92.4727 9.2V16.475H95.1977C96.9477 16.475 97.8477 14.6 97.8477 12.95C97.8477 10.275 96.5727 9.2 94.4477 9.2H92.4727ZM92.4727 17.4V25.075H95.8977C97.9477 25.075 99.3977 23.25 99.3977 21.125C99.3977 19.275 98.2727 17.4 96.0727 17.4H92.4727ZM117.312 8.275L116.312 9.95C114.137 9.35 113.037 9.2 111.387 9.2V24.8C111.387 25.275 111.537 25.65 111.762 26H108.537C108.762 25.65 108.937 25.25 108.937 24.75V9.2C107.287 9.2 106.187 9.35 104.012 9.95L103.012 8.275H117.312ZM129.815 25.725L126.99 19.775H119.64L116.765 26H115.165L115.64 25.65C115.79 25.55 115.915 25.35 115.99 25.2L122.765 10.475L121.89 8.975C121.765 8.75 121.565 8.475 121.365 8.3L121.34 8.275H123.39C123.74 8.275 124.115 8.5 124.265 8.825L132.34 25.2C132.415 25.35 132.565 25.55 132.69 25.65L133.115 26H130.24C130.065 26 129.89 25.875 129.815 25.725ZM120.065 18.875H126.565L123.265 11.925L120.065 18.875Z" fill="white"/>
<path d="M51.328 29.608L53.04 34.44L54.248 30.304C54.304 30.128 54.328 29.976 54.328 29.84C54.328 29.64 54.272 29.472 54.184 29.328H54.808L53.192 35H52.768C52.608 35 52.472 34.896 52.416 34.752L50.968 30.664L49.456 35H49C48.84 35 48.704 34.904 48.664 34.752L47.104 29.328H48.224C48.144 29.456 48.104 29.6 48.104 29.776C48.104 29.952 48.144 30.168 48.216 30.424L49.336 34.44L50.8 30.288L50.448 29.328H50.936C51.112 29.328 51.272 29.44 51.328 29.608ZM59.3618 34.912L58.4578 33.008H56.1058L55.1858 35H54.6738L54.8258 34.888C54.8738 34.856 54.9138 34.792 54.9378 34.744L57.1058 30.032L56.8258 29.552C56.7858 29.48 56.7218 29.392 56.6578 29.336L56.6498 29.328H57.3058C57.4178 29.328 57.5378 29.4 57.5858 29.504L60.1698 34.744C60.1938 34.792 60.2418 34.856 60.2818 34.888L60.4178 35H59.4978C59.4418 35 59.3858 34.96 59.3618 34.912ZM56.2418 32.72H58.3218L57.2658 30.496L56.2418 32.72ZM63.6153 35H61.4313C61.5033 34.896 61.5513 34.76 61.5513 34.616V29.712C61.5513 29.56 61.5033 29.44 61.4313 29.328H63.0313C64.1033 29.328 64.8713 29.888 64.8713 30.784C64.8713 31.352 64.3273 31.976 63.8313 32.064C64.8233 32.152 65.3673 32.776 65.3673 33.472C65.3673 34.272 64.6553 35 63.6153 35ZM62.3513 29.624V31.952H63.2233C63.7833 31.952 64.0713 31.352 64.0713 30.824C64.0713 29.968 63.6633 29.624 62.9833 29.624H62.3513ZM62.3513 32.248V34.704H63.4473C64.1033 34.704 64.5673 34.12 64.5673 33.44C64.5673 32.848 64.2073 32.248 63.5033 32.248H62.3513ZM67.6758 35H66.6438C66.7158 34.896 66.7638 34.76 66.7638 34.616V29.712C66.7638 29.56 66.7158 29.44 66.6438 29.328H67.6758C67.6118 29.432 67.5638 29.552 67.5638 29.688V34.632C67.5638 34.776 67.6118 34.896 67.6758 35ZM72.6301 34.44L72.9101 35H69.2781C69.3501 34.896 69.3981 34.776 69.3981 34.616V29.712C69.3981 29.544 69.3501 29.44 69.2781 29.328H70.3101C70.2381 29.44 70.1821 29.552 70.1821 29.728V34.704H70.9741C71.5341 34.704 71.9421 34.688 72.6301 34.44ZM77.5458 34.44L77.8258 35H74.1938C74.2658 34.896 74.3138 34.776 74.3138 34.616V29.712C74.3138 29.544 74.2658 29.44 74.1938 29.328H75.2258C75.1538 29.44 75.0978 29.552 75.0978 29.728V34.704H75.8898C76.4498 34.704 76.8578 34.688 77.5458 34.44ZM83.2134 34.912L82.3094 33.008H79.9574L79.0374 35H78.5254L78.6774 34.888C78.7254 34.856 78.7654 34.792 78.7894 34.744L80.9574 30.032L80.6774 29.552C80.6374 29.48 80.5734 29.392 80.5094 29.336L80.5014 29.328H81.1574C81.2694 29.328 81.3894 29.4 81.4374 29.504L84.0214 34.744C84.0454 34.792 84.0934 34.856 84.1334 34.888L84.2694 35H83.3494C83.2934 35 83.2374 34.96 83.2134 34.912ZM80.0934 32.72H82.1734L81.1174 30.496L80.0934 32.72ZM86.3148 35H85.2828C85.3548 34.896 85.4028 34.76 85.4028 34.616V29.712C85.4028 29.56 85.3548 29.44 85.2828 29.328H86.3148C86.2508 29.432 86.2028 29.552 86.2028 29.688V31.856H89.0668V29.712C89.0668 29.56 89.0188 29.44 88.9468 29.328H89.9788C89.9148 29.432 89.8668 29.552 89.8668 29.688V34.632C89.8668 34.776 89.9148 34.896 89.9788 35H88.9468C89.0188 34.896 89.0668 34.76 89.0668 34.616V32.152H86.2028V34.632C86.2028 34.776 86.2508 34.896 86.3148 35ZM92.6133 35H91.5813C91.6533 34.896 91.7013 34.76 91.7013 34.616V29.712C91.7013 29.56 91.6533 29.44 91.5813 29.328H92.6133C92.5493 29.432 92.5013 29.552 92.5013 29.688V34.632C92.5013 34.776 92.5493 34.896 92.6133 35ZM100.672 29.328L100.352 29.864C99.6556 29.672 99.3036 29.624 98.7756 29.624V34.616C98.7756 34.768 98.8236 34.888 98.8956 35H97.8636C97.9356 34.888 97.9916 34.76 97.9916 34.6V29.624C97.4636 29.624 97.1116 29.672 96.4156 29.864L96.0956 29.328H100.672ZM105.073 34.912L104.169 33.008H101.817L100.897 35H100.385L100.537 34.888C100.585 34.856 100.625 34.792 100.649 34.744L102.817 30.032L102.537 29.552C102.497 29.48 102.433 29.392 102.369 29.336L102.361 29.328H103.017C103.129 29.328 103.249 29.4 103.297 29.504L105.881 34.744C105.905 34.792 105.953 34.856 105.993 34.888L106.129 35H105.209C105.153 35 105.097 34.96 105.073 34.912ZM101.953 32.72H104.033L102.977 30.496L101.953 32.72ZM106.902 32.16C106.902 30.264 108.326 29.208 109.75 29.208C111.174 29.208 112.598 30.264 112.598 32.16C112.598 34.056 111.174 35.12 109.75 35.12C108.326 35.12 106.902 34.056 106.902 32.16ZM107.798 32.088C107.798 33.416 108.278 34.848 109.718 34.848C110.782 34.848 111.734 34.064 111.734 32.232C111.734 30.88 111.222 29.456 109.798 29.456C108.718 29.456 107.798 30.256 107.798 32.088ZM114.988 35H113.956C114.028 34.896 114.076 34.76 114.076 34.616V29.712C114.076 29.56 114.028 29.44 113.956 29.328H117.436L117.084 29.872C116.156 29.68 115.556 29.624 114.86 29.624V31.88H116.756L116.5 32.384C115.78 32.176 115.604 32.176 114.86 32.176V34.6C114.86 34.76 114.916 34.888 114.988 35ZM121.844 34.456L122.196 35H118.716C118.796 34.888 118.836 34.752 118.836 34.616V29.712C118.836 29.56 118.788 29.44 118.716 29.328H121.796L121.444 29.872C120.556 29.624 120.172 29.624 119.62 29.624V31.592H121.276L121.02 32.096C120.3 31.888 120.172 31.888 119.62 31.888V34.56C119.62 34.608 119.628 34.656 119.636 34.704C120.324 34.704 120.964 34.704 121.844 34.456ZM126.767 34.456L127.119 35H123.639C123.719 34.888 123.759 34.752 123.759 34.616V29.712C123.759 29.56 123.711 29.44 123.639 29.328H126.719L126.367 29.872C125.479 29.624 125.095 29.624 124.543 29.624V31.592H126.199L125.943 32.096C125.223 31.888 125.095 31.888 124.543 31.888V34.56C124.543 34.608 124.551 34.656 124.559 34.704C125.247 34.704 125.887 34.704 126.767 34.456ZM129.595 35H128.563C128.635 34.896 128.683 34.76 128.683 34.616V29.712C128.683 29.56 128.635 29.44 128.563 29.328H129.595C129.523 29.44 129.467 29.568 129.467 29.728V32.08L129.891 31.696C130.683 30.984 131.219 30.504 131.915 29.328H132.915L130.467 31.568L133.147 35H132.451C132.259 35 132.059 34.896 131.939 34.744L129.907 32.08L129.467 32.488V34.6C129.467 34.76 129.523 34.888 129.595 35Z" fill="#F8A645"/>
<path d="M48.02 44H47.375C47.42 43.935 47.45 43.85 47.45 43.76V40.695C47.45 40.6 47.42 40.525 47.375 40.455H48.02C47.98 40.52 47.95 40.595 47.95 40.68V42.035H49.74V40.695C49.74 40.6 49.71 40.525 49.665 40.455H50.31C50.27 40.52 50.24 40.595 50.24 40.68V43.77C50.24 43.86 50.27 43.935 50.31 44H49.665C49.71 43.935 49.74 43.85 49.74 43.76V42.22H47.95V43.77C47.95 43.86 47.98 43.935 48.02 44ZM55.2765 43.945L54.7115 42.755H53.2415L52.6665 44H52.3465L52.4415 43.93C52.4715 43.91 52.4965 43.87 52.5115 43.84L53.8665 40.895L53.6915 40.595C53.6665 40.55 53.6265 40.495 53.5865 40.46L53.5815 40.455H53.9915C54.0615 40.455 54.1365 40.5 54.1665 40.565L55.7815 43.84C55.7965 43.87 55.8265 43.91 55.8515 43.93L55.9365 44H55.3615C55.3265 44 55.2915 43.975 55.2765 43.945ZM53.3265 42.575H54.6265L53.9665 41.185L53.3265 42.575ZM57.4449 44.345L57.4299 44.22C57.7899 44.22 58.0199 43.935 58.0199 43.225V40.695C58.0199 40.59 57.9899 40.525 57.9449 40.455H58.5899C58.5449 40.525 58.5099 40.595 58.5099 40.705V43.225C58.5099 43.845 58.1049 44.345 57.4449 44.345ZM60.4084 44.345L60.3934 44.22C60.7534 44.22 60.9834 43.935 60.9834 43.225V40.695C60.9834 40.59 60.9534 40.525 60.9084 40.455H61.5534C61.5084 40.525 61.4734 40.595 61.4734 40.705V43.225C61.4734 43.845 61.0684 44.345 60.4084 44.345ZM65.1369 40.375C65.5969 40.38 66.0719 40.64 66.0719 41.16C66.0719 41.665 65.6119 41.87 65.1369 42.085L64.9469 42.17C65.2119 42.47 65.5269 42.82 65.9169 43.155C66.2519 42.65 66.3169 42.195 66.3169 42.195H66.7469C66.6769 42.645 66.4969 43.055 66.2119 43.385L67.0219 44H66.1869L65.8669 43.705C65.5569 43.955 65.2269 44.03 64.8669 44.03C63.9819 44.03 63.5219 43.585 63.5219 43.13C63.5219 42.685 63.9569 42.46 64.4319 42.24C64.1819 41.885 64.0219 41.52 64.0219 41.2C64.0219 40.48 64.8319 40.375 65.1369 40.375ZM64.8469 42.045C65.2619 41.835 65.6069 41.575 65.6069 41.1C65.6069 40.765 65.4319 40.49 65.0869 40.49C64.7169 40.49 64.5269 40.8 64.5269 41.185C64.5219 41.505 64.6519 41.79 64.8469 42.045ZM64.5469 42.39C64.2769 42.57 64.0769 42.805 64.0769 43.18C64.0769 43.305 64.0969 43.875 64.8169 43.875C65.1569 43.875 65.3969 43.745 65.6219 43.52C65.2269 43.165 64.8219 42.775 64.5469 42.39ZM70.3745 44.075C69.6545 44.075 68.9995 43.615 68.9995 42.78V40.685C68.9995 40.595 68.9695 40.52 68.9295 40.455H69.5745C69.5295 40.525 69.4895 40.61 69.4895 40.715V42.78C69.4895 43.32 69.7645 43.925 70.3795 43.925C71.0495 43.925 71.3895 43.425 71.3895 42.78V40.65C71.3895 40.57 71.3745 40.51 71.3395 40.455H71.6245C71.5895 40.505 71.5745 40.57 71.5745 40.65V42.78C71.5745 43.615 71.0945 44.075 70.3745 44.075ZM74.4442 44H73.9242C73.9942 43.915 74.0492 43.805 74.0642 43.635L74.2892 40.87L74.0542 40.455H74.4242C74.5342 40.455 74.6442 40.52 74.6992 40.62L76.1492 43.23L77.3292 40.645C77.3792 40.53 77.4992 40.455 77.6242 40.455H77.7842L78.0342 43.75C78.0442 43.86 78.0692 43.93 78.1142 44H77.4692C77.5142 43.93 77.5492 43.865 77.5492 43.78V43.75L77.3442 41.03L76.0792 43.85L76.0642 43.84C75.9542 43.765 75.8392 43.635 75.7742 43.52L74.4792 41.215L74.2992 43.625V43.665C74.2992 43.815 74.3742 43.915 74.4442 44ZM81.1081 44H80.4631C80.5081 43.935 80.5381 43.86 80.5381 43.76V40.695C80.5381 40.59 80.5081 40.525 80.4631 40.455H81.7731C82.3431 40.455 82.9581 40.795 82.9581 41.435C82.9581 41.985 82.5081 42.225 81.8931 42.305L83.2281 44H82.8281C82.7081 44 82.5781 43.94 82.5031 43.845L81.1981 42.215H81.5831C81.8931 42.215 82.4531 42.015 82.4531 41.41C82.4531 40.74 81.9831 40.64 81.6831 40.64H81.0281V43.75C81.0281 43.86 81.0631 43.93 81.1081 44ZM87.9886 43.945L87.4236 42.755H85.9536L85.3786 44H85.0586L85.1536 43.93C85.1836 43.91 85.2086 43.87 85.2236 43.84L86.5786 40.895L86.4036 40.595C86.3786 40.55 86.3386 40.495 86.2986 40.46L86.2936 40.455H86.7036C86.7736 40.455 86.8486 40.5 86.8786 40.565L88.4936 43.84C88.5086 43.87 88.5386 43.91 88.5636 43.93L88.6486 44H88.0736C88.0386 44 88.0036 43.975 87.9886 43.945ZM86.0386 42.575H87.3386L86.6786 41.185L86.0386 42.575ZM91.327 44H90.682C90.727 43.935 90.757 43.85 90.757 43.76V40.695C90.757 40.6 90.727 40.525 90.682 40.455H91.327C91.287 40.52 91.257 40.595 91.257 40.68V42.035H93.047V40.695C93.047 40.6 93.017 40.525 92.972 40.455H93.617C93.577 40.52 93.547 40.595 93.547 40.68V43.77C93.547 43.86 93.577 43.935 93.617 44H92.972C93.017 43.935 93.047 43.85 93.047 43.76V42.22H91.257V43.77C91.257 43.86 91.287 43.935 91.327 44ZM101.279 40.92L101.164 41.43L101.074 41.27C100.874 40.92 100.639 40.51 100.034 40.51C99.6986 40.51 99.3136 40.72 99.3136 41.185C99.3136 41.61 99.6386 41.75 99.9836 41.9L100.144 41.97C100.939 42.335 101.284 42.53 101.284 43.005C101.284 43.575 100.789 44.075 99.9936 44.075C99.2986 44.075 98.8286 43.695 98.6986 43.285L98.8836 42.845C98.9836 43.295 99.3936 43.93 100.034 43.93C100.309 43.93 100.829 43.705 100.829 43.295C100.829 43.04 100.754 42.75 100.034 42.455C99.1286 42.085 98.8836 41.86 98.8836 41.44C98.8836 40.88 99.3186 40.38 100.034 40.38C100.654 40.38 101.009 40.615 101.279 40.92ZM105.487 43.66L105.707 44H103.532C103.582 43.93 103.607 43.845 103.607 43.76V40.695C103.607 40.6 103.577 40.525 103.532 40.455H105.457L105.237 40.795C104.682 40.64 104.442 40.64 104.097 40.64V41.87H105.132L104.972 42.185C104.522 42.055 104.442 42.055 104.097 42.055V43.725C104.097 43.755 104.102 43.785 104.107 43.815C104.537 43.815 104.937 43.815 105.487 43.66ZM108.655 44H108.01C108.055 43.935 108.085 43.86 108.085 43.76V40.695C108.085 40.59 108.055 40.525 108.01 40.455H109.32C109.89 40.455 110.505 40.795 110.505 41.435C110.505 41.985 110.055 42.225 109.44 42.305L110.775 44H110.375C110.255 44 110.125 43.94 110.05 43.845L108.745 42.215H109.13C109.44 42.215 110 42.015 110 41.41C110 40.74 109.53 40.64 109.23 40.64H108.575V43.75C108.575 43.86 108.61 43.93 108.655 44ZM114.233 43.73L115.243 41.1C115.308 40.935 115.343 40.8 115.343 40.68C115.343 40.595 115.323 40.52 115.283 40.455H115.778C115.678 40.525 115.598 40.675 115.488 40.98L114.328 44H113.843L113.403 42.82L112.583 40.65C112.563 40.6 112.538 40.565 112.513 40.53L112.503 40.52C112.488 40.5 112.473 40.48 112.458 40.455H113.268C113.213 40.54 113.188 40.635 113.188 40.745C113.188 40.84 113.208 40.95 113.253 41.065L114.233 43.73ZM118.454 44H117.809C117.854 43.935 117.884 43.85 117.884 43.76V40.695C117.884 40.6 117.854 40.525 117.809 40.455H118.454C118.414 40.52 118.384 40.595 118.384 40.68V43.77C118.384 43.86 118.414 43.935 118.454 44ZM120.705 42.225C120.705 41.04 121.585 40.38 122.46 40.38C122.91 40.38 123.36 40.555 123.69 40.88V41.415C123.46 40.865 123 40.57 122.54 40.57C121.885 40.57 121.28 41.165 121.28 42.225C121.28 43.285 121.885 43.885 122.54 43.885C122.95 43.885 123.36 43.645 123.61 43.205V43.645C123.29 43.925 122.875 44.075 122.46 44.075C121.585 44.075 120.705 43.41 120.705 42.225ZM127.902 43.66L128.122 44H125.947C125.997 43.93 126.022 43.845 126.022 43.76V40.695C126.022 40.6 125.992 40.525 125.947 40.455H127.872L127.652 40.795C127.097 40.64 126.857 40.64 126.512 40.64V41.87H127.547L127.387 42.185C126.937 42.055 126.857 42.055 126.512 42.055V43.725C126.512 43.755 126.517 43.785 126.522 43.815C126.952 43.815 127.352 43.815 127.902 43.66ZM132.785 40.92L132.67 41.43L132.58 41.27C132.38 40.92 132.145 40.51 131.54 40.51C131.205 40.51 130.82 40.72 130.82 41.185C130.82 41.61 131.145 41.75 131.49 41.9L131.65 41.97C132.445 42.335 132.79 42.53 132.79 43.005C132.79 43.575 132.295 44.075 131.5 44.075C130.805 44.075 130.335 43.695 130.205 43.285L130.39 42.845C130.49 43.295 130.9 43.93 131.54 43.93C131.815 43.93 132.335 43.705 132.335 43.295C132.335 43.04 132.26 42.75 131.54 42.455C130.635 42.085 130.39 41.86 130.39 41.44C130.39 40.88 130.825 40.38 131.54 40.38C132.16 40.38 132.515 40.615 132.785 40.92Z" fill="white"/>
<defs>
<filter id="filter0_f_261_247" x="19.0833" y="1.9236" width="25.0178" height="36.0276" filterUnits="userSpaceOnUse" color-interpolation-filters="sRGB">
<feFlood flood-opacity="0" result="BackgroundImageFix"/>
<feBlend mode="normal" in="SourceGraphic" in2="BackgroundImageFix" result="shape"/>
<feGaussianBlur stdDeviation="2.4" result="effect1_foregroundBlur_261_247"/>
</filter>
<clipPath id="clip0_261_247">
<rect width="35" height="40" fill="white" transform="translate(2 7)"/>
</clipPath>
</defs>
</svg>
